<svg id="webshop" xmlns="http://www.w3.org/2000/svg" width="62" height="62" viewBox="0 0 62 62">
  <path id="Path_30720" data-name="Path 30720" d="M50.375,62H11.625A11.624,11.624,0,0,1,0,50.375V11.625A11.624,11.624,0,0,1,11.625,0h38.75A11.624,11.624,0,0,1,62,11.625v38.75A11.624,11.624,0,0,1,50.375,62Z" fill="#f0f0fd"/>
  <path id="Path_30769" data-name="Path 30769" d="M1776.3,2300.132h-27.448a4.054,4.054,0,0,0-4.055,4.055v21.686a4.055,4.055,0,0,0,4.055,4.055H1776.3a4.055,4.055,0,0,0,4.055-4.055v-21.685A4.057,4.057,0,0,0,1776.3,2300.132Zm-2.365,2.851a.957.957,0,1,1-1.036.869A.959.959,0,0,1,1773.935,2302.983Zm-3.316,0a.957.957,0,1,1-1.036.869A.958.958,0,0,1,1770.619,2302.983Zm6.922,21.228a2.9,2.9,0,0,1-2.9,2.9h-24.13a2.9,2.9,0,0,1-2.9-2.9v-16.421h29.927Zm-.708-19.322a.957.957,0,1,1,1.036-.869A.957.957,0,0,1,1776.833,2304.89Z" transform="translate(-1731.577 -2284.03)" fill="#b4b4dd"/>
  <path id="Icon_metro-shop" data-name="Icon metro-shop" d="M8.858,9.49,9.59,4.627H5.78L4.188,8.795a1.461,1.461,0,0,0-.075.463A2.167,2.167,0,0,0,6.494,11.11,2.259,2.259,0,0,0,8.858,9.49Zm3.591,1.621A2.168,2.168,0,0,0,14.83,9.258c0-.038,0-.076,0-.112l-.471-4.519h-3.81l-.472,4.515c0,.038,0,.076,0,.116a2.168,2.168,0,0,0,2.381,1.852Zm4.631.969v3.662H7.818V12.085a3.9,3.9,0,0,1-1.323.23,3.819,3.819,0,0,1-.529-.045v5.88a1.3,1.3,0,0,0,1.295,1.3H17.635a1.3,1.3,0,0,0,1.3-1.3V12.27a3.979,3.979,0,0,1-.529.045A3.849,3.849,0,0,1,17.079,12.079ZM20.71,8.795,19.116,4.627H15.307l.732,4.855A2.254,2.254,0,0,0,18.4,11.11a2.168,2.168,0,0,0,2.381-1.852,1.487,1.487,0,0,0-.074-.463Z" transform="translate(19.107 20.92)" fill="#2f2e7c"/>
</svg>
